<?xml version="1.0" encoding="utf-8"?>
<!DOCTYPE svg PUBLIC "-//W3C//DTD SVG 20010904//EN" "http://www.w3.org/TR/2001/REC-SVG-20010904/DTD/svg10.dtd">
<svg version="1.0" xmlns="http://www.w3.org/2000/svg" width="21pt" height="30pt" viewBox="0 0 21 30" style="" preserveAspectRatio="xMidYMid meet">
<g fill="#000001FF" stroke="#000001FF">
<path d="M 6.873 2.750 C 3.661 6.663 1.000 13.000 1.000 16.736 C 1.000 22.320 5.861 29.000 9.924 29.000 C 14.451 29.000 15.953 28.046 17.598 24.129 C 20.590 16.999 19.089 10.045 13.199 3.750 C 10.204 0.549 8.855 0.336 6.873 2.750 M 13.155 6.750 C 16.548 14.486 16.984 17.690 15.378 23.098 C 14.003 27.730 13.734 28.000 10.497 28.000 C 7.662 28.000 6.635 27.357 4.536 24.268 C 1.346 19.573 1.237 14.194 4.220 8.636 C 8.715 0.259 10.172 -0.048 13.155 6.750 "/></g>
<g fill="#404051FF" stroke="#404051FF">
<path d="M 7.342 3.250 C 1.520 11.312 0.583 18.450 4.575 24.326 C 6.748 27.523 7.630 28.067 10.221 27.808 C 12.884 27.541 13.459 26.932 14.547 23.229 C 15.910 18.588 15.795 17.589 12.825 8.250 C 10.899 2.196 9.213 0.659 7.342 3.250 "/></g>
<g fill="#22222CFF" stroke="#22222CFF">
<path d="M 13.521 9.500 C 13.878 10.600 14.418 12.973 14.720 14.774 C 15.022 16.575 15.652 18.285 16.120 18.574 C 17.337 19.326 15.984 12.967 14.295 10.000 C 13.386 8.402 13.107 8.221 13.521 9.500 "/></g>
<g fill="#22222CFF" stroke="#22222CFF">
<path d="M 14.571 22.571 C 14.204 24.037 14.096 25.429 14.331 25.665 C 14.567 25.900 15.061 24.894 15.429 23.429 C 15.796 21.963 15.904 20.571 15.669 20.335 C 15.433 20.100 14.939 21.106 14.571 22.571 "/></g>
</svg>
