<?xml version="1.0" encoding="utf-8"?>
<!DOCTYPE svg PUBLIC "-//W3C//DTD SVG 20010904//EN" "http://www.w3.org/TR/2001/REC-SVG-20010904/DTD/svg10.dtd">
<svg version="1.0" xmlns="http://www.w3.org/2000/svg" width="21pt" height="30pt" viewBox="0 0 21 30" style="" preserveAspectRatio="xMidYMid meet">
<g fill="#000001FF" stroke="#000001FF">
<path d="M 6.873 2.750 C 3.661 6.663 1.000 13.000 1.000 16.736 C 1.000 22.320 5.861 29.000 9.924 29.000 C 14.451 29.000 15.953 28.046 17.598 24.129 C 20.590 16.999 19.089 10.045 13.199 3.750 C 10.204 0.549 8.855 0.336 6.873 2.750 M 14.016 8.185 C 16.762 13.461 17.152 15.072 16.668 19.156 C 15.836 26.177 14.565 28.000 10.501 28.000 C 7.661 28.000 6.636 27.359 4.536 24.268 C 1.346 19.573 1.237 14.194 4.220 8.636 C 8.847 0.014 9.742 -0.027 14.016 8.185 "/></g>
<g fill="#094C09FF" stroke="#094C09FF">
<path d="M 7.342 3.250 C 1.543 11.281 0.585 18.453 4.536 24.268 C 6.616 27.328 7.674 28.000 10.417 28.000 C 13.541 28.000 13.837 27.706 14.881 23.557 C 16.505 17.108 16.305 15.200 13.278 8.250 C 10.586 2.071 9.098 0.818 7.342 3.250 "/></g>
<g fill="#002600FF" stroke="#002600FF">
<path d="M 14.097 10.189 C 15.757 13.445 16.097 15.395 15.621 18.939 C 15.284 21.448 14.894 24.400 14.754 25.500 C 14.614 26.600 15.060 25.700 15.744 23.500 C 16.429 21.300 16.991 18.245 16.994 16.710 C 17.000 14.104 13.568 6.000 12.459 6.000 C 12.184 6.000 12.921 7.885 14.097 10.189 "/></g>
</svg>
