<?xml version="1.0" encoding="utf-8"?>
<!DOCTYPE svg PUBLIC "-//W3C//DTD SVG 20010904//EN" "http://www.w3.org/TR/2001/REC-SVG-20010904/DTD/svg10.dtd">
<svg version="1.0" xmlns="http://www.w3.org/2000/svg" width="21pt" height="30pt" viewBox="0 0 21 30" style="" preserveAspectRatio="xMidYMid meet">
<g fill="#000001FF" stroke="#000001FF">
<path d="M 6.873 2.750 C 3.661 6.663 1.000 13.000 1.000 16.736 C 1.000 22.320 5.861 29.000 9.924 29.000 C 14.451 29.000 15.953 28.046 17.598 24.129 C 20.590 16.999 19.089 10.045 13.199 3.750 C 10.204 0.549 8.855 0.336 6.873 2.750 M 12.725 4.250 C 13.865 5.488 15.543 8.724 16.453 11.443 C 17.852 15.622 17.922 17.166 16.908 21.443 C 15.544 27.200 14.771 27.963 10.286 27.985 C 7.686 27.997 6.587 27.287 4.536 24.268 C 1.346 19.573 1.237 14.194 4.220 8.636 C 8.322 0.992 9.271 0.503 12.725 4.250 "/></g>
<g fill="#74180DFF" stroke="#74180DFF">
<path d="M 7.370 3.217 C 4.365 7.361 2.000 13.280 2.000 16.654 C 2.000 22.189 6.215 28.228 9.787 27.809 C 12.785 27.457 13.762 25.110 13.868 18.000 C 13.938 13.308 10.837 2.779 9.228 2.243 C 8.718 2.073 7.882 2.511 7.370 3.217 "/></g>
<g fill="#511109FF" stroke="#511109FF">
<path d="M 11.651 6.500 C 13.828 13.241 14.388 19.936 13.150 24.418 C 12.379 27.210 12.420 28.028 13.313 27.732 C 13.966 27.517 15.117 25.054 15.871 22.259 C 17.093 17.728 17.048 16.561 15.454 11.493 C 14.471 8.367 12.850 4.840 11.852 3.655 C 10.091 1.564 10.085 1.648 11.651 6.500 "/></g>
<g fill="#2E0900FF" stroke="#2E0900FF">
<path d="M 15.070 10.459 C 16.132 13.479 17.036 16.749 17.079 17.725 C 17.127 18.797 17.360 18.999 17.667 18.235 C 18.241 16.811 15.133 6.200 13.923 5.453 C 13.493 5.186 14.009 7.440 15.070 10.459 "/></g>
</svg>
